<svg width="21" height="21" viewBox="0 0 21 21" fill="none" xmlns="http://www.w3.org/2000/svg">
<path d="M2.7 5.4C4.19117 5.4 5.4 4.19117 5.4 2.7C5.4 1.20883 4.19117 0 2.7 0C1.20883 0 0 1.20883 0 2.7C0 4.19117 1.20883 5.4 2.7 5.4Z" fill="#010A3D"/>
<path d="M2.7 13.1998C4.19117 13.1998 5.4 11.991 5.4 10.4998C5.4 9.00863 4.19117 7.7998 2.7 7.7998C1.20883 7.7998 0 9.00863 0 10.4998C0 11.991 1.20883 13.1998 2.7 13.1998Z" fill="#010A3D"/>
<path d="M2.7 20.9996C4.19117 20.9996 5.4 19.7908 5.4 18.2996C5.4 16.8084 4.19117 15.5996 2.7 15.5996C1.20883 15.5996 0 16.8084 0 18.2996C0 19.7908 1.20883 20.9996 2.7 20.9996Z" fill="#010A3D"/>
<path d="M10.5008 5.4C11.9919 5.4 13.2008 4.19117 13.2008 2.7C13.2008 1.20883 11.9919 0 10.5008 0C9.00961 0 7.80078 1.20883 7.80078 2.7C7.80078 4.19117 9.00961 5.4 10.5008 5.4Z" fill="#010A3D"/>
<path d="M10.5008 13.1998C11.9919 13.1998 13.2008 11.991 13.2008 10.4998C13.2008 9.00863 11.9919 7.7998 10.5008 7.7998C9.00961 7.7998 7.80078 9.00863 7.80078 10.4998C7.80078 11.991 9.00961 13.1998 10.5008 13.1998Z" fill="#010A3D"/>
<path d="M10.5008 20.9996C11.9919 20.9996 13.2008 19.7908 13.2008 18.2996C13.2008 16.8084 11.9919 15.5996 10.5008 15.5996C9.00961 15.5996 7.80078 16.8084 7.80078 18.2996C7.80078 19.7908 9.00961 20.9996 10.5008 20.9996Z" fill="#010A3D"/>
<path d="M18.2996 5.4C19.7908 5.4 20.9996 4.19117 20.9996 2.7C20.9996 1.20883 19.7908 0 18.2996 0C16.8084 0 15.5996 1.20883 15.5996 2.7C15.5996 4.19117 16.8084 5.4 18.2996 5.4Z" fill="#010A3D"/>
<path d="M18.2996 13.1998C19.7908 13.1998 20.9996 11.991 20.9996 10.4998C20.9996 9.00863 19.7908 7.7998 18.2996 7.7998C16.8084 7.7998 15.5996 9.00863 15.5996 10.4998C15.5996 11.991 16.8084 13.1998 18.2996 13.1998Z" fill="#010A3D"/>
</svg>
