<svg width="394" height="551" viewBox="0 0 394 551" fill="none" xmlns="http://www.w3.org/2000/svg">
<mask id="mask0_23266_66312" style="mask-type:alpha" maskUnits="userSpaceOnUse" x="-2" y="0" width="396" height="551">
<path d="M383 551L383 197.047C383 174.956 365.091 157.047 343 157.047H325C302.909 157.047 285 139.139 285 117.047V102" stroke="#FFB76B" stroke-width="17" stroke-linejoin="round"/>
<path d="M7 288L7 208.5C7 186.409 24.9086 168.5 47 168.5L245 168.5C267.091 168.5 285 150.591 285 128.5V100" stroke="#0F0F43" stroke-width="17" stroke-linejoin="round"/>
<path d="M385 412V334.428C385 312.337 367.091 294.428 345 294.428H325C302.909 294.428 285 276.52 285 254.428L285 0" stroke="#0F0F43" stroke-width="17" stroke-linejoin="round"/>
<path d="M146 165L146 443" stroke="#0F0F43" stroke-width="17"/>
</mask>
<g mask="url(#mask0_23266_66312)">
<path d="M0 0H395V190H0V0Z" fill="#3D394F"/>
</g>
</svg>
