<svg width="612" height="3926" viewBox="0 0 612 3926" fill="none" xmlns="http://www.w3.org/2000/svg">
    <mask id="mask0_21402_81259" style="mask-type:alpha" maskUnits="userSpaceOnUse" x="-165" y="0" width="777" height="3898">
        <path d="M535 2872L535 2410" stroke="#F7F8FA" stroke-width="17"/>
        <path d="M535 2848L535 3215.99C535 3238.08 517.091 3255.99 495 3255.99H475C452.909 3255.99 435 3273.9 435 3295.99V3313" stroke="#F7F8FA" stroke-width="17" stroke-linejoin="round"/>
        <path d="M157 3125L157 3184C157 3206.09 174.909 3224 197 3224H395C417.091 3224 435 3241.91 435 3264V3313" stroke="#F7F8FA" stroke-width="17" stroke-linejoin="round"/>
        <path d="M157 3125V3125C157 3106.1 141.68 3090.78 122.781 3090.78H-32.2186C-34.8593 3090.78 -37 3088.64 -37 3086V3086" stroke="#F7F8FA" stroke-width="17" stroke-linejoin="round"/>
        <path d="M535 3001L535 3078.57C535 3100.66 517.091 3118.57 495 3118.57H475C452.909 3118.57 435 3136.48 435 3158.57L435 3464.5" stroke="#F7F8FA" stroke-width="17" stroke-linejoin="round"/>
        <path d="M535 2534V2611.57C535 2633.66 517.091 2651.57 495 2651.57H336C313.909 2651.57 296 2669.48 296 2691.57L296 2972" stroke="#F7F8FA" stroke-width="17" stroke-linejoin="round"/>
        <path d="M435 2650L435 3018C435 3040.09 417.091 3058 395 3058H336C313.909 3058 296 3040.09 296 3018V2940.42" stroke="#F7F8FA" stroke-width="17" stroke-linejoin="round"/>
        <path d="M215 2645L215 3008C215 3030.09 197.091 3048 175 3048H-23C-45.0914 3048 -63 3030.09 -63 3008L-63 2962" stroke="#F7F8FA" stroke-width="17" stroke-linejoin="round"/>
        <path d="M215 2972H42C19.9086 2972 2 2954.09 2 2932L2 2912" stroke="#F7F8FA" stroke-width="17" stroke-linejoin="round"/>
        <path d="M296 3225V2970" stroke="#F7F8FA" stroke-width="17"/>
        <path d="M-37 2910L296 2910" stroke="#F7F8FA" stroke-width="17"/>
        <path d="M390 2320V2370C390 2392.09 407.909 2410 430 2410H562.5C584.591 2410 602.5 2392.09 602.5 2370V2150" stroke="#F7F8FA" stroke-width="17" stroke-linejoin="round"/>
        <path d="M535 2410L535 2187" stroke="#F7F8FA" stroke-width="17"/>
        <path d="M447 2410L447 2187" stroke="#F7F8FA" stroke-width="17"/>
        <path d="M-23.5 2483.57V2406C-23.5 2383.91 -5.59139 2366 16.5 2366H124C146.091 2366 164 2348.09 164 2326L164 2106" stroke="#F7F8FA" stroke-width="17" stroke-linejoin="round"/>
        <path d="M71 2215L71 2106" stroke="#F7F8FA" stroke-width="17"/>
        <path d="M308 2106H349C371.091 2106 389 2123.91 389 2146V2324.5" stroke="#F7F8FA" stroke-width="17" stroke-linejoin="round"/>
        <path d="M107 2519.5H349C371.091 2519.5 389 2501.59 389 2479.5V2301" stroke="#F7F8FA" stroke-width="17" stroke-linejoin="round"/>
        <path d="M107 2520H93.5C71.4086 2520 53.5 2537.91 53.5 2560L53.5 2904" stroke="#F7F8FA" stroke-width="17" stroke-linejoin="round"/>
        <path d="M206.5 2645H236C258.091 2645 276 2627.09 276 2605V2488.5" stroke="#F7F8FA" stroke-width="17" stroke-linejoin="round"/>
        <path d="M206 2645H165C142.909 2645 125 2662.91 125 2685L125 2909.5" stroke="#F7F8FA" stroke-width="17" stroke-linejoin="round"/>
        <path d="M195 2106H236C258.091 2106 276 2123.91 276 2146L276 2520.5" stroke="#F7F8FA" stroke-width="17" stroke-linejoin="round"/>
        <path d="M-15.5 2053L268 2053C290.091 2053 308 2035.09 308 2013L308 1993" stroke="#F7F8FA" stroke-width="17" stroke-linejoin="round"/>
        <path d="M122 2051L122 1813C122 1790.91 104.091 1773 82 1773H23C0.908612 1773 -17 1755.09 -17 1733L-17 1669" stroke="#F7F8FA" stroke-width="17" stroke-linejoin="round"/>
        <path d="M210 1799H308" stroke="#F7F8FA" stroke-width="17"/>
        <path d="M210 2052L210 1712C210 1689.91 192.091 1672 170 1672H111C88.9086 1672 71 1654.09 71 1632L71 1568" stroke="#F7F8FA" stroke-width="17" stroke-linejoin="round"/>
        <path d="M402 1870L603 1870" stroke="#F7F8FA" stroke-width="17"/>
        <path d="M122 1501L308 1501" stroke="#F7F8FA" stroke-width="17"/>
        <path d="M-15 2106L308 2106" stroke="#F7F8FA" stroke-width="17"/>
        <path d="M-15 2216H164" stroke="#F7F8FA" stroke-width="17"/>
        <path d="M169 1501V1671" stroke="#F7F8FA" stroke-width="17"/>
        <path d="M122 1343L122 1522C122 1544.09 104.091 1562 82 1562H59C36.9086 1562 19 1544.09 19 1522L19 1343" stroke="#F7F8FA" stroke-width="17" stroke-linejoin="round"/>
        <path d="M572 441V831" stroke="#F7F8FA" stroke-width="17"/>
        <path d="M572 465L572 97.009C572 74.9176 554.091 57.009 532 57.009H512C489.909 57.009 472 39.1004 472 17.009V0" stroke="#F7F8FA" stroke-width="17" stroke-linejoin="round"/>
        <path d="M194 188L194 108.5C194 86.4086 211.909 68.5 234 68.5L432 68.5C454.091 68.5 472 50.5914 472 28.5V0" stroke="#F7F8FA" stroke-width="17" stroke-linejoin="round"/>
        <path d="M113 1173L113 1114C113 1091.91 130.909 1074 153 1074H351C373.091 1074 391 1056.09 391 1034V985" stroke="#F7F8FA" stroke-width="17" stroke-linejoin="round"/>
        <path d="M252 1501L252 1317C252 1294.91 234.091 1277 212 1277H153C130.909 1277 113 1259.09 113 1237L113 1173" stroke="#F7F8FA" stroke-width="17" stroke-linejoin="round"/>
        <path d="M194 188V188C194 206.898 178.68 222.219 159.781 222.219L4.7814 222.219C2.1407 222.219 0 224.359 0 227V227" stroke="#F7F8FA" stroke-width="17" stroke-linejoin="round"/>
        <path d="M572 312V234.428C572 212.337 554.091 194.428 532 194.428H512C489.909 194.428 472 176.52 472 154.428V90" stroke="#F7F8FA" stroke-width="17" stroke-linejoin="round"/>
        <path d="M472 658L472 580.428C472 558.337 454.091 540.428 432 540.428H373C350.909 540.428 333 522.52 333 500.428V341" stroke="#F7F8FA" stroke-width="17" stroke-linejoin="round"/>
        <path d="M391 985L391 845.5C391 823.409 373.091 805.5 351 805.5H292C269.909 805.5 252 787.591 252 765.5L252 668" stroke="#F7F8FA" stroke-width="17" stroke-linejoin="round"/>
        <path d="M391 985V845.5C391 823.409 408.909 805.5 431 805.5H432C454.091 805.5 472 787.591 472 765.5V668" stroke="#F7F8FA" stroke-width="17" stroke-linejoin="round"/>
        <path d="M603 2008L603 1742.5C603 1725.38 589.121 1711.5 572 1711.5V1711.5C554.879 1711.5 541 1697.62 541 1680.5V1399" stroke="#F7F8FA" stroke-width="17" stroke-linejoin="round"/>
        <path d="M472 720.5L472 295C472 272.909 454.091 255 432 255L373 255C350.909 255 333 272.909 333 295V372.583" stroke="#F7F8FA" stroke-width="17" stroke-linejoin="round"/>
        <path d="M402 1833L402 1322C402 1299.91 419.909 1282 442 1282H501C523.091 1282 541 1299.91 541 1322V1399.58" stroke="#F7F8FA" stroke-width="17" stroke-linejoin="round"/>
        <path d="M307.5 1854L307.5 926.5C307.5 904.409 289.591 886.5 267.5 886.5H262C239.909 886.5 222 904.409 222 926.5L222 1076.58" stroke="#F7F8FA" stroke-width="17" stroke-linejoin="round"/>
        <path d="M252 668L252 305C252 282.909 234.091 265 212 265L14 265C-8.09139 265 -26 282.909 -26 305L-26 351" stroke="#F7F8FA" stroke-width="17" stroke-linejoin="round"/>
        <path d="M122 972L122 609C122 586.909 104.091 569 82 569H-116C-138.091 569 -156 586.909 -156 609V655" stroke="#F7F8FA" stroke-width="17" stroke-linejoin="round"/>
        <path d="M187 718L187 500.5C187 478.409 169.091 460.5 147 460.5H79C56.9086 460.5 39 442.591 39 420.5L39 401" stroke="#F7F8FA" stroke-width="17" stroke-linejoin="round"/>
        <path d="M252 341L79 341C56.9086 341 39 358.909 39 381L39 401" stroke="#F7F8FA" stroke-width="17" stroke-linejoin="round"/>
        <path d="M-91 1032L82 1032C104.091 1032 122 1014.09 122 992L122 972" stroke="#F7F8FA" stroke-width="17" stroke-linejoin="round"/>
        <path d="M252 1373L308 1373" stroke="#F7F8FA" stroke-width="17"/>
        <path d="M-26 1342L147 1342C169.091 1342 187 1324.09 187 1302L187 1282" stroke="#F7F8FA" stroke-width="17" stroke-linejoin="round"/>
        <path d="M472 1281.5L472 806" stroke="#F7F8FA" stroke-width="17" stroke-linejoin="round"/>
        <path d="M333 65L333 343" stroke="#F7F8FA" stroke-width="17"/>
        <path d="M187 718V1079" stroke="#F7F8FA" stroke-width="17"/>
        <path d="M0 403L333 403" stroke="#F7F8FA" stroke-width="17"/>
        <path d="M0 1173L472 1173" stroke="#F7F8FA" stroke-width="17"/>
        <path d="M402 1634L603 1634" stroke="#F7F8FA" stroke-width="17"/>
        <path d="M187 687L472 687" stroke="#F7F8FA" stroke-width="17"/>
        <path d="M447 2186.5L447 2093.43C447 2071.34 429.091 2053.43 407 2053.43H348C325.909 2053.43 308 2035.52 308 2013.43V1854" stroke="#F7F8FA" stroke-width="17" stroke-linejoin="round"/>
        <path d="M542 1950.5H563C585.091 1950.5 603 1968.41 603 1990.5V2069" stroke="#F7F8FA" stroke-width="17" stroke-linejoin="round"/>
        <path d="M389 2187H563C585.091 2187 603 2169.09 603 2147V2069" stroke="#F7F8FA" stroke-width="17" stroke-linejoin="round"/>
        <path d="M542 1950.57L442 1950.57C419.909 1950.57 402 1932.66 402 1910.57L402 1833" stroke="#F7F8FA" stroke-width="17" stroke-linejoin="round"/>
        <path d="M270 3889H94C71.9086 3889 54 3871.09 54 3849L54 3400.5" stroke="#F7F8FA" stroke-width="17" stroke-linejoin="round"/>
        <path d="M262 3888L262 3828C262 3805.91 244.091 3788 222 3788H163C140.909 3788 123 3770.09 123 3748L123 3393" stroke="#F7F8FA" stroke-width="17" stroke-linejoin="round"/>
        <path d="M262 3819.5V3703C262 3680.91 244.091 3663 222 3663H163C140.909 3663 123 3645.09 123 3623L123 3559" stroke="#F7F8FA" stroke-width="17" stroke-linejoin="round"/>
        <path d="M435 3694.5L435 3427.75C435 3411.32 421.68 3398 405.25 3398V3398C388.82 3398 375.5 3384.68 375.5 3368.25V3313" stroke="#F7F8FA" stroke-width="17" stroke-linejoin="round"/>
        <path d="M378.5 3660.5L378.5 3529C378.5 3507.18 360.815 3489.5 339 3489.5V3489.5C317.185 3489.5 299.5 3471.82 299.5 3450L299.5 3319" stroke="#F7F8FA" stroke-width="17" stroke-linejoin="round"/>
        <path d="M431.5 3318L263 3318C240.909 3318 223 3335.91 223 3358L223 3363.5C223 3385.59 205.091 3403.5 183 3403.5L0 3403.5" stroke="#F7F8FA" stroke-width="17" stroke-linejoin="round"/>
        <path d="M262 3749H338.5C360.591 3749 378.5 3731.09 378.5 3709V3659.5" stroke="#F7F8FA" stroke-width="17" stroke-linejoin="round"/>
        <path d="M346 1074V1074C325.013 1074 308 1091.01 308 1112V1156" stroke="#F7F8FA" stroke-width="17" stroke-linejoin="round"/>
    </mask>
    <g mask="url(#mask0_21402_81259)">
        <rect y="90" width="842" height="3836" fill="#ECE8ED"/>
    </g>
    <path d="M391 985V845.5C391 823.409 408.909 805.5 431 805.5H432C454.091 805.5 472 787.591 472 765.5V668" stroke="#6316DB" stroke-width="4" stroke-linejoin="round"/>
    <path d="M572 465L572 91.5" stroke="#6316DB" stroke-width="4" stroke-linejoin="round"/>
    <path d="M572 465V465C572 480.188 559.688 492.5 544.5 492.5H512C489.909 492.5 472 510.409 472 532.5L472 722" stroke="#6316DB" stroke-width="4" stroke-linejoin="round"/>
    <path d="M345.5 1074H351C373.091 1074 391 1056.09 391 1034V985" stroke="#6316DB" stroke-width="4" stroke-linejoin="round"/>
    <path d="M346 1074V1074C325.013 1074 308 1091.01 308 1112V1156" stroke="#6316DB" stroke-width="4" stroke-linejoin="round"/>
    <path d="M447 2410L447 2093.43C447 2071.34 429.091 2053.43 407 2053.43H348C325.909 2053.43 308 2035.52 308 2013.43V1854" stroke="#6316DB" stroke-width="4" stroke-linejoin="round"/>
    <path d="M308 1976L308 1156" stroke="#6316DB" stroke-width="4"/>
    <path d="M485 2509H495C517.091 2509 535 2526.91 535 2549V2660" stroke="#ECE8ED" stroke-width="17" stroke-linejoin="round"/>
    <path d="M485 2509H495C517.091 2509 535 2526.91 535 2549L535 3028" stroke="#6316DB" stroke-width="4" stroke-linejoin="round"/>
    <path d="M485 2509V2509C464.013 2509 447 2491.99 447 2471V2410" stroke="#6316DB" stroke-width="4" stroke-linejoin="round"/>
    <path d="M535 3001V3078.57C535 3100.66 517.091 3118.57 495 3118.57H475C452.909 3118.57 435 3136.48 435 3158.57L435 3694" stroke="#6316DB" stroke-width="4" stroke-linejoin="round"/>
    <path d="M435 3926L435 3694" stroke="#6316DB" stroke-width="4" stroke-dasharray="11 17"/>
</svg>