<svg width="843" height="648" viewBox="0 0 843 648" fill="none" xmlns="http://www.w3.org/2000/svg">
<g filter="url(#filter0_d_35930_209453)">
<path fill-rule="evenodd" clip-rule="evenodd" d="M373.96 637.749C435.22 627.569 464.696 570.275 510.299 534.393C546.592 505.837 576.804 475.515 614.62 448.393C688.166 395.644 853.988 379.987 837.214 299.921C820.149 218.461 653.173 254.199 565.939 216.021C520.153 195.983 492.386 158.838 452.319 131.473C384.745 85.3193 336.768 0.353073 249.723 0.0452647C167.531 -0.245382 92.5047 65.2241 64.0977 130.1C36.5359 193.046 118.298 257.263 107.971 323.778C97.8769 388.797 -14.441 433.846 7.15837 496.85C27.7503 556.915 130.366 560.325 197.969 586.294C255.631 608.443 311.772 648.083 373.96 637.749Z" fill="#6316DB"/>
</g>
<defs>
<filter id="filter0_d_35930_209453" x="0.40625" y="0.0449219" width="841.992" height="647.391" filterUnits="userSpaceOnUse" color-interpolation-filters="sRGB">
<feFlood flood-opacity="0" result="BackgroundImageFix"/>
<feColorMatrix in="SourceAlpha" type="matrix" values="0 0 0 0 0 0 0 0 0 0 0 0 0 0 0 0 0 0 127 0" result="hardAlpha"/>
<feOffset dy="4"/>
<feGaussianBlur stdDeviation="2"/>
<feComposite in2="hardAlpha" operator="out"/>
<feColorMatrix type="matrix" values="0 0 0 0 0 0 0 0 0 0 0 0 0 0 0 0 0 0 0.25 0"/>
<feBlend mode="normal" in2="BackgroundImageFix" result="effect1_dropShadow_35930_209453"/>
<feBlend mode="normal" in="SourceGraphic" in2="effect1_dropShadow_35930_209453" result="shape"/>
</filter>
</defs>
</svg>
