<svg width="370" height="3302" viewBox="0 0 370 3302" fill="none" xmlns="http://www.w3.org/2000/svg">
<g filter="url(#filter0_dd_22710_102922)">
<rect x="285.469" y="0.871094" width="64" height="44" rx="22" fill="#1B172D"/>
<path d="M302.125 28.8711V27.9751L306.429 23.6711C307.549 22.5351 308.125 21.6551 308.125 20.7911C308.125 19.5591 307.197 18.6791 305.885 18.6791C304.397 18.6791 303.325 19.6391 303.357 21.2071H302.157C302.093 18.9511 303.725 17.5111 305.885 17.5111C307.885 17.5111 309.357 18.8551 309.357 20.7431C309.357 21.9591 308.573 23.1751 307.293 24.4071L304.013 27.7031H309.501V28.8711H302.125ZM315.083 29.0311C312.539 29.0311 311.051 26.8231 311.051 23.2711C311.051 19.7191 312.539 17.5111 315.083 17.5111C317.627 17.5111 319.115 19.7191 319.115 23.2711C319.115 26.8231 317.627 29.0311 315.083 29.0311ZM315.083 27.8631C316.843 27.8631 317.883 26.2311 317.883 23.2711C317.883 20.3111 316.843 18.6791 315.083 18.6791C313.323 18.6791 312.283 20.3111 312.283 23.2711C312.283 26.2311 313.323 27.8631 315.083 27.8631ZM324.097 17.6711V28.8711H322.881V19.3351L320.305 21.5431V20.0551L323.217 17.6711H324.097ZM325.709 17.6711H333.053V18.5351L328.141 28.8711H326.797L331.629 18.8231H325.709V17.6711Z" fill="white"/>
<path d="M317.469 51.8711L309.969 44.8711L324.969 44.8711L317.469 51.8711Z" fill="#1B172D"/>
</g>
<g filter="url(#filter1_dd_22710_102922)">
<rect x="103.969" y="642.871" width="65" height="44" rx="22" fill="#1B172D"/>
<path d="M120.625 670.871V669.975L124.929 665.671C126.049 664.535 126.625 663.655 126.625 662.791C126.625 661.559 125.697 660.679 124.385 660.679C122.897 660.679 121.825 661.639 121.857 663.207H120.657C120.593 660.951 122.225 659.511 124.385 659.511C126.385 659.511 127.857 660.855 127.857 662.743C127.857 663.959 127.073 665.175 125.793 666.407L122.513 669.703H128.001V670.871H120.625ZM133.583 671.031C131.039 671.031 129.551 668.823 129.551 665.271C129.551 661.719 131.039 659.511 133.583 659.511C136.127 659.511 137.615 661.719 137.615 665.271C137.615 668.823 136.127 671.031 133.583 671.031ZM133.583 669.863C135.343 669.863 136.383 668.231 136.383 665.271C136.383 662.311 135.343 660.679 133.583 660.679C131.823 660.679 130.783 662.311 130.783 665.271C130.783 668.231 131.823 669.863 133.583 669.863ZM142.597 659.671V670.871H141.381V661.335L138.805 663.543V662.055L141.717 659.671H142.597ZM148.289 659.511C150.385 659.511 152.065 661.175 152.065 663.223C152.065 664.007 151.745 665.047 151.137 666.023L148.113 670.871H146.737L149.505 666.519C149.105 666.743 148.593 666.887 148.129 666.887C146.097 666.887 144.529 665.303 144.529 663.223C144.529 661.175 146.209 659.511 148.289 659.511ZM148.289 660.663C146.833 660.663 145.681 661.783 145.681 663.239C145.681 664.695 146.849 665.847 148.305 665.847C149.761 665.847 150.897 664.695 150.897 663.239C150.897 661.783 149.761 660.663 148.289 660.663Z" fill="white"/>
<path d="M136.469 693.871L128.969 686.871L143.969 686.871L136.469 693.871Z" fill="#1B172D"/>
</g>
<g filter="url(#filter2_dd_22710_102922)">
<rect x="20.4688" y="1284.87" width="65" height="44" rx="22" fill="#1B172D"/>
<path d="M37.1248 1312.87V1311.98L41.4288 1307.67C42.5488 1306.54 43.1248 1305.66 43.1248 1304.79C43.1248 1303.56 42.1968 1302.68 40.8848 1302.68C39.3968 1302.68 38.3248 1303.64 38.3568 1305.21H37.1568C37.0928 1302.95 38.7248 1301.51 40.8848 1301.51C42.8848 1301.51 44.3568 1302.86 44.3568 1304.74C44.3568 1305.96 43.5728 1307.18 42.2928 1308.41L39.0128 1311.7H44.5008V1312.87H37.1248ZM50.0828 1313.03C47.5388 1313.03 46.0508 1310.82 46.0508 1307.27C46.0508 1303.72 47.5388 1301.51 50.0828 1301.51C52.6268 1301.51 54.1148 1303.72 54.1148 1307.27C54.1148 1310.82 52.6268 1313.03 50.0828 1313.03ZM50.0828 1311.86C51.8428 1311.86 52.8828 1310.23 52.8828 1307.27C52.8828 1304.31 51.8428 1302.68 50.0828 1302.68C48.3228 1302.68 47.2828 1304.31 47.2828 1307.27C47.2828 1310.23 48.3228 1311.86 50.0828 1311.86ZM55.6091 1312.87V1311.98L59.9131 1307.67C61.0331 1306.54 61.6091 1305.66 61.6091 1304.79C61.6091 1303.56 60.6811 1302.68 59.3691 1302.68C57.8811 1302.68 56.8091 1303.64 56.8411 1305.21H55.6411C55.5771 1302.95 57.2091 1301.51 59.3691 1301.51C61.3691 1301.51 62.8411 1302.86 62.8411 1304.74C62.8411 1305.96 62.0571 1307.18 60.7771 1308.41L57.4971 1311.7H62.9851V1312.87H55.6091ZM67.8471 1301.67V1312.87H66.6311V1303.34L64.0551 1305.54V1304.06L66.9671 1301.67H67.8471Z" fill="white"/>
<path d="M52.9687 1335.87L45.4687 1328.87L60.4687 1328.87L52.9687 1335.87Z" fill="#1B172D"/>
</g>
<g filter="url(#filter3_dd_22710_102922)">
<rect x="158.469" y="1926.87" width="68" height="44" rx="22" fill="#1B172D"/>
<path d="M175.125 1954.87V1953.98L179.429 1949.67C180.549 1948.54 181.125 1947.66 181.125 1946.79C181.125 1945.56 180.197 1944.68 178.885 1944.68C177.397 1944.68 176.325 1945.64 176.357 1947.21H175.157C175.093 1944.95 176.725 1943.51 178.885 1943.51C180.885 1943.51 182.357 1944.86 182.357 1946.74C182.357 1947.96 181.573 1949.18 180.293 1950.41L177.013 1953.7H182.501V1954.87H175.125ZM188.083 1955.03C185.539 1955.03 184.051 1952.82 184.051 1949.27C184.051 1945.72 185.539 1943.51 188.083 1943.51C190.627 1943.51 192.115 1945.72 192.115 1949.27C192.115 1952.82 190.627 1955.03 188.083 1955.03ZM188.083 1953.86C189.843 1953.86 190.883 1952.23 190.883 1949.27C190.883 1946.31 189.843 1944.68 188.083 1944.68C186.323 1944.68 185.283 1946.31 185.283 1949.27C185.283 1952.23 186.323 1953.86 188.083 1953.86ZM193.609 1954.87V1953.98L197.913 1949.67C199.033 1948.54 199.609 1947.66 199.609 1946.79C199.609 1945.56 198.681 1944.68 197.369 1944.68C195.881 1944.68 194.809 1945.64 194.841 1947.21H193.641C193.577 1944.95 195.209 1943.51 197.369 1943.51C199.369 1943.51 200.841 1944.86 200.841 1946.74C200.841 1947.96 200.057 1949.18 198.777 1950.41L195.497 1953.7H200.985V1954.87H193.609ZM202.359 1954.87V1953.98L206.663 1949.67C207.783 1948.54 208.359 1947.66 208.359 1946.79C208.359 1945.56 207.431 1944.68 206.119 1944.68C204.631 1944.68 203.559 1945.64 203.591 1947.21H202.391C202.327 1944.95 203.959 1943.51 206.119 1943.51C208.119 1943.51 209.591 1944.86 209.591 1946.74C209.591 1947.96 208.807 1949.18 207.527 1950.41L204.247 1953.7H209.735V1954.87H202.359Z" fill="white"/>
<path d="M192.469 1977.87L184.969 1970.87L199.969 1970.87L192.469 1977.87Z" fill="#1B172D"/>
</g>
<g filter="url(#filter4_dd_22710_102922)">
<rect x="236.969" y="2568.87" width="87" height="44" rx="22" fill="#1B172D"/>
<path d="M258.649 2590.97C259.833 2590.97 260.729 2590.06 260.729 2588.89C260.729 2587.72 259.833 2586.82 258.649 2586.82H255.545V2590.97H258.649ZM254.329 2585.67H258.649C260.521 2585.67 261.945 2587.06 261.945 2588.89C261.945 2590.73 260.521 2592.12 258.649 2592.12H255.545V2596.87H254.329V2585.67ZM263.434 2596.87V2589.1H264.602V2590.38C265.002 2589.54 265.834 2588.94 266.778 2588.94C267.034 2588.94 267.29 2588.98 267.514 2589.03V2590.12C267.274 2590.04 267.002 2589.99 266.762 2589.99C265.562 2589.99 264.602 2590.94 264.602 2592.26V2596.87H263.434ZM272.03 2597.03C269.79 2597.03 268.062 2595.27 268.062 2592.95C268.062 2590.7 269.806 2588.94 272.014 2588.94C274.11 2588.94 275.742 2590.55 275.742 2592.73L275.726 2593.19H269.214C269.31 2594.86 270.43 2595.99 272.062 2595.99C273.278 2595.99 274.302 2595.37 274.51 2594.41H275.662C275.374 2596.01 273.87 2597.03 272.03 2597.03ZM269.262 2592.2H274.494C274.382 2590.92 273.358 2589.98 271.982 2589.98C270.59 2589.98 269.534 2590.86 269.262 2592.2ZM280.119 2597.03C278.375 2597.03 277.127 2596.09 276.951 2594.57H278.087C278.199 2595.45 278.983 2596.02 280.071 2596.02C281.143 2596.02 281.879 2595.46 281.879 2594.66C281.879 2592.5 277.159 2594.12 277.159 2591.11C277.159 2589.85 278.263 2588.92 279.927 2588.92C281.415 2588.92 282.695 2589.77 282.871 2591.16H281.703C281.575 2590.46 280.855 2589.91 279.895 2589.91C278.967 2589.91 278.279 2590.38 278.279 2591.03C278.279 2593.13 283.015 2591.45 283.015 2594.66C283.015 2596.04 281.783 2597.03 280.119 2597.03ZM288.249 2597.03C286.009 2597.03 284.281 2595.27 284.281 2592.95C284.281 2590.7 286.025 2588.94 288.233 2588.94C290.329 2588.94 291.961 2590.55 291.961 2592.73L291.945 2593.19H285.433C285.529 2594.86 286.649 2595.99 288.281 2595.99C289.497 2595.99 290.521 2595.37 290.729 2594.41H291.881C291.593 2596.01 290.089 2597.03 288.249 2597.03ZM285.481 2592.2H290.713C290.601 2590.92 289.577 2589.98 288.201 2589.98C286.809 2589.98 285.753 2590.86 285.481 2592.2ZM294.946 2589.1V2590.62C295.442 2589.56 296.386 2588.94 297.602 2588.94C299.602 2588.94 300.882 2590.26 300.882 2592.39V2596.87H299.714V2592.5C299.714 2591.02 298.786 2590.04 297.362 2590.04C295.906 2590.04 294.946 2591.02 294.946 2592.5V2596.87H293.778V2589.1H294.946ZM306.149 2596.95C304.565 2596.95 303.557 2596.09 303.557 2594.26V2590.18H302.021V2589.1H303.557V2586.95H304.725V2589.1H306.901V2590.18H304.725V2594.25C304.725 2595.43 305.365 2595.86 306.357 2595.86C306.533 2595.86 306.741 2595.85 306.901 2595.8V2596.87C306.693 2596.92 306.389 2596.95 306.149 2596.95Z" fill="white"/>
<path d="M280.469 2619.87L272.969 2612.87L287.969 2612.87L280.469 2619.87Z" fill="#1B172D"/>
</g>
<g filter="url(#filter5_dd_22710_102922)">
<rect x="143.469" y="3210.87" width="87" height="44" rx="22" fill="#1B172D"/>
<path d="M165.149 3232.97C166.333 3232.97 167.229 3232.06 167.229 3230.89C167.229 3229.72 166.333 3228.82 165.149 3228.82H162.045V3232.97H165.149ZM160.829 3227.67H165.149C167.021 3227.67 168.445 3229.06 168.445 3230.89C168.445 3232.73 167.021 3234.12 165.149 3234.12H162.045V3238.87H160.829V3227.67ZM169.934 3238.87V3231.1H171.102V3232.38C171.502 3231.54 172.334 3230.94 173.278 3230.94C173.534 3230.94 173.79 3230.98 174.014 3231.03V3232.12C173.774 3232.04 173.502 3231.99 173.262 3231.99C172.062 3231.99 171.102 3232.94 171.102 3234.26V3238.87H169.934ZM178.53 3239.03C176.29 3239.03 174.562 3237.27 174.562 3234.95C174.562 3232.7 176.306 3230.94 178.514 3230.94C180.61 3230.94 182.242 3232.55 182.242 3234.73L182.226 3235.19H175.714C175.81 3236.86 176.93 3237.99 178.562 3237.99C179.778 3237.99 180.802 3237.37 181.01 3236.41H182.162C181.874 3238.01 180.37 3239.03 178.53 3239.03ZM175.762 3234.2H180.994C180.882 3232.92 179.858 3231.98 178.482 3231.98C177.09 3231.98 176.034 3232.86 175.762 3234.2ZM186.619 3239.03C184.875 3239.03 183.627 3238.09 183.451 3236.57H184.587C184.699 3237.45 185.483 3238.02 186.571 3238.02C187.643 3238.02 188.379 3237.46 188.379 3236.66C188.379 3234.5 183.659 3236.12 183.659 3233.11C183.659 3231.85 184.763 3230.92 186.427 3230.92C187.915 3230.92 189.195 3231.77 189.371 3233.16H188.203C188.075 3232.46 187.355 3231.91 186.395 3231.91C185.467 3231.91 184.779 3232.38 184.779 3233.03C184.779 3235.13 189.515 3233.45 189.515 3236.66C189.515 3238.04 188.283 3239.03 186.619 3239.03ZM194.749 3239.03C192.509 3239.03 190.781 3237.27 190.781 3234.95C190.781 3232.7 192.525 3230.94 194.733 3230.94C196.829 3230.94 198.461 3232.55 198.461 3234.73L198.445 3235.19H191.933C192.029 3236.86 193.149 3237.99 194.781 3237.99C195.997 3237.99 197.021 3237.37 197.229 3236.41H198.381C198.093 3238.01 196.589 3239.03 194.749 3239.03ZM191.981 3234.2H197.213C197.101 3232.92 196.077 3231.98 194.701 3231.98C193.309 3231.98 192.253 3232.86 191.981 3234.2ZM201.446 3231.1V3232.62C201.942 3231.56 202.886 3230.94 204.102 3230.94C206.102 3230.94 207.382 3232.26 207.382 3234.39V3238.87H206.214V3234.5C206.214 3233.02 205.286 3232.04 203.862 3232.04C202.406 3232.04 201.446 3233.02 201.446 3234.5V3238.87H200.278V3231.1H201.446ZM212.649 3238.95C211.065 3238.95 210.057 3238.09 210.057 3236.26V3232.18H208.521V3231.1H210.057V3228.95H211.225V3231.1H213.401V3232.18H211.225V3236.25C211.225 3237.43 211.865 3237.86 212.857 3237.86C213.033 3237.86 213.241 3237.85 213.401 3237.8V3238.87C213.193 3238.92 212.889 3238.95 212.649 3238.95Z" fill="white"/>
<path d="M186.969 3261.87L179.469 3254.87L194.469 3254.87L186.969 3261.87Z" fill="#1B172D"/>
</g>
<defs>
<filter id="filter0_dd_22710_102922" x="265.469" y="0.871094" width="104" height="91" filterUnits="userSpaceOnUse" color-interpolation-filters="sRGB">
<feFlood flood-opacity="0" result="BackgroundImageFix"/>
<feColorMatrix in="SourceAlpha" type="matrix" values="0 0 0 0 0 0 0 0 0 0 0 0 0 0 0 0 0 0 127 0" result="hardAlpha"/>
<feMorphology radius="4" operator="erode" in="SourceAlpha" result="effect1_dropShadow_22710_102922"/>
<feOffset dy="8"/>
<feGaussianBlur stdDeviation="4"/>
<feComposite in2="hardAlpha" operator="out"/>
<feColorMatrix type="matrix" values="0 0 0 0 0.0627451 0 0 0 0 0.0941176 0 0 0 0 0.156863 0 0 0 0.03 0"/>
<feBlend mode="normal" in2="BackgroundImageFix" result="effect1_dropShadow_22710_102922"/>
<feColorMatrix in="SourceAlpha" type="matrix" values="0 0 0 0 0 0 0 0 0 0 0 0 0 0 0 0 0 0 127 0" result="hardAlpha"/>
<feMorphology radius="4" operator="erode" in="SourceAlpha" result="effect2_dropShadow_22710_102922"/>
<feOffset dy="20"/>
<feGaussianBlur stdDeviation="12"/>
<feComposite in2="hardAlpha" operator="out"/>
<feColorMatrix type="matrix" values="0 0 0 0 0.0627451 0 0 0 0 0.0941176 0 0 0 0 0.156863 0 0 0 0.08 0"/>
<feBlend mode="normal" in2="effect1_dropShadow_22710_102922" result="effect2_dropShadow_22710_102922"/>
<feBlend mode="normal" in="SourceGraphic" in2="effect2_dropShadow_22710_102922" result="shape"/>
</filter>
<filter id="filter1_dd_22710_102922" x="83.9688" y="642.871" width="105" height="91" filterUnits="userSpaceOnUse" color-interpolation-filters="sRGB">
<feFlood flood-opacity="0" result="BackgroundImageFix"/>
<feColorMatrix in="SourceAlpha" type="matrix" values="0 0 0 0 0 0 0 0 0 0 0 0 0 0 0 0 0 0 127 0" result="hardAlpha"/>
<feMorphology radius="4" operator="erode" in="SourceAlpha" result="effect1_dropShadow_22710_102922"/>
<feOffset dy="8"/>
<feGaussianBlur stdDeviation="4"/>
<feComposite in2="hardAlpha" operator="out"/>
<feColorMatrix type="matrix" values="0 0 0 0 0.0627451 0 0 0 0 0.0941176 0 0 0 0 0.156863 0 0 0 0.03 0"/>
<feBlend mode="normal" in2="BackgroundImageFix" result="effect1_dropShadow_22710_102922"/>
<feColorMatrix in="SourceAlpha" type="matrix" values="0 0 0 0 0 0 0 0 0 0 0 0 0 0 0 0 0 0 127 0" result="hardAlpha"/>
<feMorphology radius="4" operator="erode" in="SourceAlpha" result="effect2_dropShadow_22710_102922"/>
<feOffset dy="20"/>
<feGaussianBlur stdDeviation="12"/>
<feComposite in2="hardAlpha" operator="out"/>
<feColorMatrix type="matrix" values="0 0 0 0 0.0627451 0 0 0 0 0.0941176 0 0 0 0 0.156863 0 0 0 0.08 0"/>
<feBlend mode="normal" in2="effect1_dropShadow_22710_102922" result="effect2_dropShadow_22710_102922"/>
<feBlend mode="normal" in="SourceGraphic" in2="effect2_dropShadow_22710_102922" result="shape"/>
</filter>
<filter id="filter2_dd_22710_102922" x="0.46875" y="1284.87" width="105" height="91" filterUnits="userSpaceOnUse" color-interpolation-filters="sRGB">
<feFlood flood-opacity="0" result="BackgroundImageFix"/>
<feColorMatrix in="SourceAlpha" type="matrix" values="0 0 0 0 0 0 0 0 0 0 0 0 0 0 0 0 0 0 127 0" result="hardAlpha"/>
<feMorphology radius="4" operator="erode" in="SourceAlpha" result="effect1_dropShadow_22710_102922"/>
<feOffset dy="8"/>
<feGaussianBlur stdDeviation="4"/>
<feComposite in2="hardAlpha" operator="out"/>
<feColorMatrix type="matrix" values="0 0 0 0 0.0627451 0 0 0 0 0.0941176 0 0 0 0 0.156863 0 0 0 0.03 0"/>
<feBlend mode="normal" in2="BackgroundImageFix" result="effect1_dropShadow_22710_102922"/>
<feColorMatrix in="SourceAlpha" type="matrix" values="0 0 0 0 0 0 0 0 0 0 0 0 0 0 0 0 0 0 127 0" result="hardAlpha"/>
<feMorphology radius="4" operator="erode" in="SourceAlpha" result="effect2_dropShadow_22710_102922"/>
<feOffset dy="20"/>
<feGaussianBlur stdDeviation="12"/>
<feComposite in2="hardAlpha" operator="out"/>
<feColorMatrix type="matrix" values="0 0 0 0 0.0627451 0 0 0 0 0.0941176 0 0 0 0 0.156863 0 0 0 0.08 0"/>
<feBlend mode="normal" in2="effect1_dropShadow_22710_102922" result="effect2_dropShadow_22710_102922"/>
<feBlend mode="normal" in="SourceGraphic" in2="effect2_dropShadow_22710_102922" result="shape"/>
</filter>
<filter id="filter3_dd_22710_102922" x="138.469" y="1926.87" width="108" height="91" filterUnits="userSpaceOnUse" color-interpolation-filters="sRGB">
<feFlood flood-opacity="0" result="BackgroundImageFix"/>
<feColorMatrix in="SourceAlpha" type="matrix" values="0 0 0 0 0 0 0 0 0 0 0 0 0 0 0 0 0 0 127 0" result="hardAlpha"/>
<feMorphology radius="4" operator="erode" in="SourceAlpha" result="effect1_dropShadow_22710_102922"/>
<feOffset dy="8"/>
<feGaussianBlur stdDeviation="4"/>
<feComposite in2="hardAlpha" operator="out"/>
<feColorMatrix type="matrix" values="0 0 0 0 0.0627451 0 0 0 0 0.0941176 0 0 0 0 0.156863 0 0 0 0.03 0"/>
<feBlend mode="normal" in2="BackgroundImageFix" result="effect1_dropShadow_22710_102922"/>
<feColorMatrix in="SourceAlpha" type="matrix" values="0 0 0 0 0 0 0 0 0 0 0 0 0 0 0 0 0 0 127 0" result="hardAlpha"/>
<feMorphology radius="4" operator="erode" in="SourceAlpha" result="effect2_dropShadow_22710_102922"/>
<feOffset dy="20"/>
<feGaussianBlur stdDeviation="12"/>
<feComposite in2="hardAlpha" operator="out"/>
<feColorMatrix type="matrix" values="0 0 0 0 0.0627451 0 0 0 0 0.0941176 0 0 0 0 0.156863 0 0 0 0.08 0"/>
<feBlend mode="normal" in2="effect1_dropShadow_22710_102922" result="effect2_dropShadow_22710_102922"/>
<feBlend mode="normal" in="SourceGraphic" in2="effect2_dropShadow_22710_102922" result="shape"/>
</filter>
<filter id="filter4_dd_22710_102922" x="216.969" y="2568.87" width="127" height="91" filterUnits="userSpaceOnUse" color-interpolation-filters="sRGB">
<feFlood flood-opacity="0" result="BackgroundImageFix"/>
<feColorMatrix in="SourceAlpha" type="matrix" values="0 0 0 0 0 0 0 0 0 0 0 0 0 0 0 0 0 0 127 0" result="hardAlpha"/>
<feMorphology radius="4" operator="erode" in="SourceAlpha" result="effect1_dropShadow_22710_102922"/>
<feOffset dy="8"/>
<feGaussianBlur stdDeviation="4"/>
<feComposite in2="hardAlpha" operator="out"/>
<feColorMatrix type="matrix" values="0 0 0 0 0.0627451 0 0 0 0 0.0941176 0 0 0 0 0.156863 0 0 0 0.03 0"/>
<feBlend mode="normal" in2="BackgroundImageFix" result="effect1_dropShadow_22710_102922"/>
<feColorMatrix in="SourceAlpha" type="matrix" values="0 0 0 0 0 0 0 0 0 0 0 0 0 0 0 0 0 0 127 0" result="hardAlpha"/>
<feMorphology radius="4" operator="erode" in="SourceAlpha" result="effect2_dropShadow_22710_102922"/>
<feOffset dy="20"/>
<feGaussianBlur stdDeviation="12"/>
<feComposite in2="hardAlpha" operator="out"/>
<feColorMatrix type="matrix" values="0 0 0 0 0.0627451 0 0 0 0 0.0941176 0 0 0 0 0.156863 0 0 0 0.08 0"/>
<feBlend mode="normal" in2="effect1_dropShadow_22710_102922" result="effect2_dropShadow_22710_102922"/>
<feBlend mode="normal" in="SourceGraphic" in2="effect2_dropShadow_22710_102922" result="shape"/>
</filter>
<filter id="filter5_dd_22710_102922" x="123.469" y="3210.87" width="127" height="91" filterUnits="userSpaceOnUse" color-interpolation-filters="sRGB">
<feFlood flood-opacity="0" result="BackgroundImageFix"/>
<feColorMatrix in="SourceAlpha" type="matrix" values="0 0 0 0 0 0 0 0 0 0 0 0 0 0 0 0 0 0 127 0" result="hardAlpha"/>
<feMorphology radius="4" operator="erode" in="SourceAlpha" result="effect1_dropShadow_22710_102922"/>
<feOffset dy="8"/>
<feGaussianBlur stdDeviation="4"/>
<feComposite in2="hardAlpha" operator="out"/>
<feColorMatrix type="matrix" values="0 0 0 0 0.0627451 0 0 0 0 0.0941176 0 0 0 0 0.156863 0 0 0 0.03 0"/>
<feBlend mode="normal" in2="BackgroundImageFix" result="effect1_dropShadow_22710_102922"/>
<feColorMatrix in="SourceAlpha" type="matrix" values="0 0 0 0 0 0 0 0 0 0 0 0 0 0 0 0 0 0 127 0" result="hardAlpha"/>
<feMorphology radius="4" operator="erode" in="SourceAlpha" result="effect2_dropShadow_22710_102922"/>
<feOffset dy="20"/>
<feGaussianBlur stdDeviation="12"/>
<feComposite in2="hardAlpha" operator="out"/>
<feColorMatrix type="matrix" values="0 0 0 0 0.0627451 0 0 0 0 0.0941176 0 0 0 0 0.156863 0 0 0 0.08 0"/>
<feBlend mode="normal" in2="effect1_dropShadow_22710_102922" result="effect2_dropShadow_22710_102922"/>
<feBlend mode="normal" in="SourceGraphic" in2="effect2_dropShadow_22710_102922" result="shape"/>
</filter>
</defs>
</svg>
