<svg width="370" height="3302" viewBox="0 0 370 3302" fill="none" xmlns="http://www.w3.org/2000/svg">
<g filter="url(#filter0_dd_22710_102922)">
<rect x="20.7812" y="0.871094" width="64" height="44" rx="22" fill="#1B172D"/>
<path d="M37.4373 28.8711V27.9751L41.7413 23.6711C42.8613 22.5351 43.4373 21.6551 43.4373 20.7911C43.4373 19.5591 42.5093 18.6791 41.1973 18.6791C39.7093 18.6791 38.6373 19.6391 38.6693 21.2071H37.4693C37.4053 18.9511 39.0373 17.5111 41.1973 17.5111C43.1973 17.5111 44.6693 18.8551 44.6693 20.7431C44.6693 21.9591 43.8853 23.1751 42.6053 24.4071L39.3253 27.7031H44.8133V28.8711H37.4373ZM50.3953 29.0311C47.8513 29.0311 46.3633 26.8231 46.3633 23.2711C46.3633 19.7191 47.8513 17.5111 50.3953 17.5111C52.9393 17.5111 54.4273 19.7191 54.4273 23.2711C54.4273 26.8231 52.9393 29.0311 50.3953 29.0311ZM50.3953 27.8631C52.1553 27.8631 53.1953 26.2311 53.1953 23.2711C53.1953 20.3111 52.1553 18.6791 50.3953 18.6791C48.6353 18.6791 47.5953 20.3111 47.5953 23.2711C47.5953 26.2311 48.6353 27.8631 50.3953 27.8631ZM59.4096 17.6711V28.8711H58.1936V19.3351L55.6176 21.5431V20.0551L58.5296 17.6711H59.4096ZM61.0213 17.6711H68.3653V18.5351L63.4533 28.8711H62.1093L66.9413 18.8231H61.0213V17.6711Z" fill="white"/>
<path d="M52.7812 51.8711L45.2812 44.8711L60.2812 44.8711L52.7812 51.8711Z" fill="#1B172D"/>
</g>
<g filter="url(#filter1_dd_22710_102922)">
<rect x="201.281" y="642" width="65" height="44" rx="22" fill="#1B172D"/>
<path d="M217.937 670V669.104L222.241 664.8C223.361 663.664 223.937 662.784 223.937 661.92C223.937 660.688 223.009 659.808 221.697 659.808C220.209 659.808 219.137 660.768 219.169 662.336H217.969C217.905 660.08 219.537 658.64 221.697 658.64C223.697 658.64 225.169 659.984 225.169 661.872C225.169 663.088 224.385 664.304 223.105 665.536L219.825 668.832H225.313V670H217.937ZM230.895 670.16C228.351 670.16 226.863 667.952 226.863 664.4C226.863 660.848 228.351 658.64 230.895 658.64C233.439 658.64 234.927 660.848 234.927 664.4C234.927 667.952 233.439 670.16 230.895 670.16ZM230.895 668.992C232.655 668.992 233.695 667.36 233.695 664.4C233.695 661.44 232.655 659.808 230.895 659.808C229.135 659.808 228.095 661.44 228.095 664.4C228.095 667.36 229.135 668.992 230.895 668.992ZM239.91 658.8V670H238.694V660.464L236.118 662.672V661.184L239.03 658.8H239.91ZM245.601 658.64C247.697 658.64 249.377 660.304 249.377 662.352C249.377 663.136 249.057 664.176 248.449 665.152L245.425 670H244.049L246.817 665.648C246.417 665.872 245.905 666.016 245.441 666.016C243.409 666.016 241.841 664.432 241.841 662.352C241.841 660.304 243.521 658.64 245.601 658.64ZM245.601 659.792C244.145 659.792 242.993 660.912 242.993 662.368C242.993 663.824 244.161 664.976 245.617 664.976C247.073 664.976 248.209 663.824 248.209 662.368C248.209 660.912 247.073 659.792 245.601 659.792Z" fill="white"/>
<path d="M233.781 693L226.281 686L241.281 686L233.781 693Z" fill="#1B172D"/>
</g>
<g filter="url(#filter2_dd_22710_102922)">
<rect x="284.781" y="1284.87" width="65" height="44" rx="22" fill="#1B172D"/>
<path d="M301.437 1312.87V1311.98L305.741 1307.67C306.861 1306.54 307.437 1305.66 307.437 1304.79C307.437 1303.56 306.509 1302.68 305.197 1302.68C303.709 1302.68 302.637 1303.64 302.669 1305.21H301.469C301.405 1302.95 303.037 1301.51 305.197 1301.51C307.197 1301.51 308.669 1302.86 308.669 1304.74C308.669 1305.96 307.885 1307.18 306.605 1308.41L303.325 1311.7H308.813V1312.87H301.437ZM314.395 1313.03C311.851 1313.03 310.363 1310.82 310.363 1307.27C310.363 1303.72 311.851 1301.51 314.395 1301.51C316.939 1301.51 318.427 1303.72 318.427 1307.27C318.427 1310.82 316.939 1313.03 314.395 1313.03ZM314.395 1311.86C316.155 1311.86 317.195 1310.23 317.195 1307.27C317.195 1304.31 316.155 1302.68 314.395 1302.68C312.635 1302.68 311.595 1304.31 311.595 1307.27C311.595 1310.23 312.635 1311.86 314.395 1311.86ZM319.922 1312.87V1311.98L324.226 1307.67C325.346 1306.54 325.922 1305.66 325.922 1304.79C325.922 1303.56 324.994 1302.68 323.682 1302.68C322.194 1302.68 321.122 1303.64 321.154 1305.21H319.954C319.89 1302.95 321.522 1301.51 323.682 1301.51C325.682 1301.51 327.154 1302.86 327.154 1304.74C327.154 1305.96 326.37 1307.18 325.09 1308.41L321.81 1311.7H327.298V1312.87H319.922ZM332.16 1301.67V1312.87H330.944V1303.34L328.368 1305.54V1304.06L331.28 1301.67H332.16Z" fill="white"/>
<path d="M317.281 1335.87L309.781 1328.87L324.781 1328.87L317.281 1335.87Z" fill="#1B172D"/>
</g>
<g filter="url(#filter3_dd_22710_102922)">
<rect x="143.781" y="1926.87" width="68" height="44" rx="22" fill="#1B172D"/>
<path d="M160.437 1954.87V1953.98L164.741 1949.67C165.861 1948.54 166.437 1947.66 166.437 1946.79C166.437 1945.56 165.509 1944.68 164.197 1944.68C162.709 1944.68 161.637 1945.64 161.669 1947.21H160.469C160.405 1944.95 162.037 1943.51 164.197 1943.51C166.197 1943.51 167.669 1944.86 167.669 1946.74C167.669 1947.96 166.885 1949.18 165.605 1950.41L162.325 1953.7H167.813V1954.87H160.437ZM173.395 1955.03C170.851 1955.03 169.363 1952.82 169.363 1949.27C169.363 1945.72 170.851 1943.51 173.395 1943.51C175.939 1943.51 177.427 1945.72 177.427 1949.27C177.427 1952.82 175.939 1955.03 173.395 1955.03ZM173.395 1953.86C175.155 1953.86 176.195 1952.23 176.195 1949.27C176.195 1946.31 175.155 1944.68 173.395 1944.68C171.635 1944.68 170.595 1946.31 170.595 1949.27C170.595 1952.23 171.635 1953.86 173.395 1953.86ZM178.922 1954.87V1953.98L183.226 1949.67C184.346 1948.54 184.922 1947.66 184.922 1946.79C184.922 1945.56 183.994 1944.68 182.682 1944.68C181.194 1944.68 180.122 1945.64 180.154 1947.21H178.954C178.89 1944.95 180.522 1943.51 182.682 1943.51C184.682 1943.51 186.154 1944.86 186.154 1946.74C186.154 1947.96 185.37 1949.18 184.09 1950.41L180.81 1953.7H186.298V1954.87H178.922ZM187.672 1954.87V1953.98L191.976 1949.67C193.096 1948.54 193.672 1947.66 193.672 1946.79C193.672 1945.56 192.744 1944.68 191.432 1944.68C189.944 1944.68 188.872 1945.64 188.904 1947.21H187.704C187.64 1944.95 189.272 1943.51 191.432 1943.51C193.432 1943.51 194.904 1944.86 194.904 1946.74C194.904 1947.96 194.12 1949.18 192.84 1950.41L189.56 1953.7H195.048V1954.87H187.672Z" fill="white"/>
<path d="M177.781 1977.87L170.281 1970.87L185.281 1970.87L177.781 1977.87Z" fill="#1B172D"/>
</g>
<g filter="url(#filter4_dd_22710_102922)">
<rect x="72.2812" y="2568.87" width="61" height="44" rx="22" fill="#1B172D"/>
<path d="M92.9373 2597.95C92.0839 2597.95 91.4279 2597.86 90.9693 2597.66C90.5213 2597.47 90.2119 2597.17 90.0413 2596.77C89.8706 2596.36 89.7746 2595.84 89.7533 2595.2L89.4333 2586.45H90.7453L91.0653 2594.69C91.0866 2595.21 91.1346 2595.62 91.2093 2595.9C91.2946 2596.18 91.4759 2596.37 91.7533 2596.48C92.0413 2596.59 92.4893 2596.64 93.0973 2596.64C93.3213 2596.64 93.4813 2596.7 93.5773 2596.83C93.6839 2596.95 93.7373 2597.09 93.7373 2597.26C93.7373 2597.43 93.6626 2597.59 93.5133 2597.74C93.3639 2597.88 93.1719 2597.95 92.9373 2597.95ZM92.9375 2597.95L93.0975 2596.64C93.6308 2596.64 94.0468 2596.6 94.3455 2596.53C94.6442 2596.44 94.8682 2596.29 95.0175 2596.06C95.1775 2595.83 95.3055 2595.49 95.4015 2595.06C95.4975 2594.62 95.6148 2594.05 95.7535 2593.34L97.0015 2593.58C96.9588 2593.78 96.9108 2593.99 96.8575 2594.22C96.8042 2594.46 96.7562 2594.69 96.7135 2594.93C96.6815 2595.15 96.6655 2595.35 96.6655 2595.52C96.6655 2595.68 96.6762 2595.83 96.6975 2595.97C96.7188 2596.11 96.7988 2596.22 96.9375 2596.32C97.0762 2596.42 97.3108 2596.5 97.6415 2596.56C97.9722 2596.61 98.4468 2596.64 99.0655 2596.64C99.2895 2596.64 99.4495 2596.7 99.5455 2596.83C99.6522 2596.95 99.7055 2597.09 99.7055 2597.26C99.7055 2597.43 99.6308 2597.59 99.4815 2597.74C99.3322 2597.88 99.1402 2597.95 98.9055 2597.95C98.2548 2597.95 97.7375 2597.92 97.3535 2597.86C96.9695 2597.78 96.6762 2597.67 96.4735 2597.54C96.2815 2597.4 96.1428 2597.23 96.0575 2597.02C95.9828 2596.81 95.9242 2596.56 95.8815 2596.29L96.3615 2596.32C96.1908 2596.66 96.0042 2596.94 95.8015 2597.15C95.6095 2597.36 95.3855 2597.53 95.1295 2597.65C94.8735 2597.76 94.5642 2597.84 94.2015 2597.89C93.8495 2597.93 93.4282 2597.95 92.9375 2597.95ZM96.9695 2600.98C96.7455 2600.98 96.5535 2600.9 96.3935 2600.74C96.2442 2600.59 96.1695 2600.4 96.1695 2600.19C96.1695 2599.98 96.2442 2599.79 96.3935 2599.63C96.5535 2599.47 96.7455 2599.39 96.9695 2599.39C97.1828 2599.39 97.3642 2599.47 97.5135 2599.63C97.6735 2599.79 97.7535 2599.98 97.7535 2600.19C97.7535 2600.4 97.6735 2600.59 97.5135 2600.74C97.3642 2600.9 97.1828 2600.98 96.9695 2600.98ZM94.7775 2600.98C94.5535 2600.98 94.3615 2600.9 94.2015 2600.74C94.0522 2600.59 93.9775 2600.4 93.9775 2600.19C93.9775 2599.98 94.0522 2599.79 94.2015 2599.63C94.3615 2599.47 94.5535 2599.39 94.7775 2599.39C94.9908 2599.39 95.1722 2599.47 95.3215 2599.63C95.4815 2599.79 95.5615 2599.98 95.5615 2600.19C95.5615 2600.4 95.4815 2600.59 95.3215 2600.74C95.1722 2600.9 94.9908 2600.98 94.7775 2600.98ZM98.9062 2597.95L99.0503 2596.64C99.6582 2596.64 100.085 2596.58 100.33 2596.46C100.576 2596.35 100.714 2596.14 100.746 2595.84C100.789 2595.54 100.8 2595.12 100.778 2594.59L100.474 2586.45H101.77L102.09 2594.45C102.112 2595.01 102.09 2595.51 102.026 2595.95C101.973 2596.39 101.834 2596.76 101.61 2597.06C101.397 2597.35 101.072 2597.58 100.634 2597.73C100.208 2597.88 99.6316 2597.95 98.9062 2597.95ZM107.719 2597.95C106.865 2597.95 106.209 2597.86 105.751 2597.66C105.303 2597.47 104.993 2597.17 104.823 2596.77C104.652 2596.36 104.556 2595.84 104.535 2595.2L104.215 2586.45H105.527L105.847 2594.69C105.868 2595.21 105.916 2595.62 105.991 2595.9C106.076 2596.18 106.257 2596.37 106.535 2596.48C106.823 2596.59 107.271 2596.64 107.879 2596.64C108.103 2596.64 108.263 2596.7 108.359 2596.83C108.465 2596.95 108.519 2597.09 108.519 2597.26C108.519 2597.43 108.444 2597.59 108.295 2597.74C108.145 2597.88 107.953 2597.95 107.719 2597.95ZM107.719 2597.95L107.863 2596.64C108.417 2596.64 108.961 2596.6 109.495 2596.51C110.028 2596.43 110.551 2596.3 111.063 2596.14C111.575 2595.98 112.065 2595.79 112.535 2595.57C113.015 2595.33 113.468 2595.07 113.895 2594.77C113.617 2594.52 113.297 2594.31 112.935 2594.13C112.572 2593.95 112.172 2593.81 111.735 2593.71C111.308 2593.6 110.855 2593.55 110.375 2593.55C110.204 2593.55 110.044 2593.56 109.895 2593.57C109.745 2593.58 109.596 2593.6 109.447 2593.63C109.297 2593.65 109.127 2593.68 108.935 2593.73L108.679 2592.51C108.967 2592.43 109.255 2592.36 109.543 2592.32C109.831 2592.27 110.108 2592.24 110.375 2592.24C110.929 2592.24 111.431 2592.31 111.879 2592.45C112.327 2592.58 112.732 2592.74 113.095 2592.93C113.468 2593.12 113.815 2593.31 114.135 2593.5C114.465 2593.7 114.785 2593.86 115.095 2594C115.404 2594.13 115.724 2594.19 116.055 2594.19H116.391L116.503 2595.34C116.044 2595.34 115.623 2595.41 115.239 2595.54C114.855 2595.66 114.476 2595.83 114.103 2596.03C113.74 2596.22 113.356 2596.43 112.951 2596.66C112.545 2596.87 112.097 2597.08 111.607 2597.28C111.116 2597.47 110.551 2597.63 109.911 2597.76C109.281 2597.89 108.551 2597.95 107.719 2597.95Z" fill="white"/>
<path d="M102.781 2619.87L95.2812 2612.87L110.281 2612.87L102.781 2619.87Z" fill="#1B172D"/>
</g>
<g filter="url(#filter5_dd_22710_102922)">
<rect x="172.281" y="3210.87" width="61" height="44" rx="22" fill="#1B172D"/>
<path d="M192.937 3238.95C192.084 3238.95 191.428 3238.86 190.969 3238.66C190.521 3238.47 190.212 3238.17 190.041 3237.77C189.871 3237.36 189.775 3236.84 189.753 3236.2L189.433 3227.45H190.745L191.065 3235.69C191.087 3236.21 191.135 3236.62 191.209 3236.9C191.295 3237.18 191.476 3237.37 191.753 3237.48C192.041 3237.59 192.489 3237.64 193.097 3237.64C193.321 3237.64 193.481 3237.7 193.577 3237.83C193.684 3237.95 193.737 3238.09 193.737 3238.26C193.737 3238.43 193.663 3238.59 193.513 3238.74C193.364 3238.88 193.172 3238.95 192.937 3238.95ZM192.938 3238.95L193.098 3237.64C193.631 3237.64 194.047 3237.6 194.346 3237.53C194.644 3237.44 194.868 3237.29 195.018 3237.06C195.178 3236.83 195.306 3236.49 195.402 3236.06C195.498 3235.62 195.615 3235.05 195.754 3234.34L197.002 3234.58C196.959 3234.78 196.911 3234.99 196.858 3235.22C196.804 3235.46 196.756 3235.69 196.714 3235.93C196.682 3236.15 196.666 3236.35 196.666 3236.52C196.666 3236.68 196.676 3236.83 196.698 3236.97C196.719 3237.11 196.799 3237.22 196.938 3237.32C197.076 3237.42 197.311 3237.5 197.641 3237.56C197.972 3237.61 198.447 3237.64 199.066 3237.64C199.29 3237.64 199.45 3237.7 199.546 3237.83C199.652 3237.95 199.706 3238.09 199.706 3238.26C199.706 3238.43 199.631 3238.59 199.482 3238.74C199.332 3238.88 199.14 3238.95 198.906 3238.95C198.255 3238.95 197.738 3238.92 197.354 3238.86C196.97 3238.78 196.676 3238.67 196.474 3238.54C196.282 3238.4 196.143 3238.23 196.058 3238.02C195.983 3237.81 195.924 3237.56 195.882 3237.29L196.362 3237.32C196.191 3237.66 196.004 3237.94 195.802 3238.15C195.61 3238.36 195.386 3238.53 195.13 3238.65C194.874 3238.76 194.564 3238.84 194.202 3238.89C193.85 3238.93 193.428 3238.95 192.938 3238.95ZM196.97 3241.98C196.746 3241.98 196.554 3241.9 196.394 3241.74C196.244 3241.59 196.17 3241.4 196.17 3241.19C196.17 3240.98 196.244 3240.79 196.394 3240.63C196.554 3240.47 196.746 3240.39 196.97 3240.39C197.183 3240.39 197.364 3240.47 197.514 3240.63C197.674 3240.79 197.754 3240.98 197.754 3241.19C197.754 3241.4 197.674 3241.59 197.514 3241.74C197.364 3241.9 197.183 3241.98 196.97 3241.98ZM194.778 3241.98C194.554 3241.98 194.362 3241.9 194.202 3241.74C194.052 3241.59 193.978 3241.4 193.978 3241.19C193.978 3240.98 194.052 3240.79 194.202 3240.63C194.362 3240.47 194.554 3240.39 194.778 3240.39C194.991 3240.39 195.172 3240.47 195.322 3240.63C195.482 3240.79 195.562 3240.98 195.562 3241.19C195.562 3241.4 195.482 3241.59 195.322 3241.74C195.172 3241.9 194.991 3241.98 194.778 3241.98ZM198.906 3238.95L199.05 3237.64C199.658 3237.64 200.085 3237.58 200.33 3237.46C200.576 3237.35 200.714 3237.14 200.746 3236.84C200.789 3236.54 200.8 3236.12 200.778 3235.59L200.474 3227.45H201.77L202.09 3235.45C202.112 3236.01 202.09 3236.51 202.026 3236.95C201.973 3237.39 201.834 3237.76 201.61 3238.06C201.397 3238.35 201.072 3238.58 200.634 3238.73C200.208 3238.88 199.632 3238.95 198.906 3238.95ZM207.719 3238.95C206.865 3238.95 206.209 3238.86 205.751 3238.66C205.303 3238.47 204.993 3238.17 204.823 3237.77C204.652 3237.36 204.556 3236.84 204.535 3236.2L204.215 3227.45H205.527L205.847 3235.69C205.868 3236.21 205.916 3236.62 205.991 3236.9C206.076 3237.18 206.257 3237.37 206.535 3237.48C206.823 3237.59 207.271 3237.64 207.879 3237.64C208.103 3237.64 208.263 3237.7 208.359 3237.83C208.465 3237.95 208.519 3238.09 208.519 3238.26C208.519 3238.43 208.444 3238.59 208.295 3238.74C208.145 3238.88 207.953 3238.95 207.719 3238.95ZM207.719 3238.95L207.863 3237.64C208.417 3237.64 208.961 3237.6 209.495 3237.51C210.028 3237.43 210.551 3237.3 211.063 3237.14C211.575 3236.98 212.065 3236.79 212.535 3236.57C213.015 3236.33 213.468 3236.07 213.895 3235.77C213.617 3235.52 213.297 3235.31 212.935 3235.13C212.572 3234.95 212.172 3234.81 211.735 3234.71C211.308 3234.6 210.855 3234.55 210.375 3234.55C210.204 3234.55 210.044 3234.56 209.895 3234.57C209.745 3234.58 209.596 3234.6 209.447 3234.63C209.297 3234.65 209.127 3234.68 208.935 3234.73L208.679 3233.51C208.967 3233.43 209.255 3233.36 209.543 3233.32C209.831 3233.27 210.108 3233.24 210.375 3233.24C210.929 3233.24 211.431 3233.31 211.879 3233.45C212.327 3233.58 212.732 3233.74 213.095 3233.93C213.468 3234.12 213.815 3234.31 214.135 3234.5C214.465 3234.7 214.785 3234.86 215.095 3235C215.404 3235.13 215.724 3235.19 216.055 3235.19H216.391L216.503 3236.34C216.044 3236.34 215.623 3236.41 215.239 3236.54C214.855 3236.66 214.476 3236.83 214.103 3237.03C213.74 3237.22 213.356 3237.43 212.951 3237.66C212.545 3237.87 212.097 3238.08 211.607 3238.28C211.116 3238.47 210.551 3238.63 209.911 3238.76C209.281 3238.89 208.551 3238.95 207.719 3238.95Z" fill="white"/>
<path d="M202.781 3261.87L195.281 3254.87L210.281 3254.87L202.781 3261.87Z" fill="#1B172D"/>
</g>
<defs>
<filter id="filter0_dd_22710_102922" x="0.78125" y="0.871094" width="104" height="91" filterUnits="userSpaceOnUse" color-interpolation-filters="sRGB">
<feFlood flood-opacity="0" result="BackgroundImageFix"/>
<feColorMatrix in="SourceAlpha" type="matrix" values="0 0 0 0 0 0 0 0 0 0 0 0 0 0 0 0 0 0 127 0" result="hardAlpha"/>
<feMorphology radius="4" operator="erode" in="SourceAlpha" result="effect1_dropShadow_22710_102922"/>
<feOffset dy="8"/>
<feGaussianBlur stdDeviation="4"/>
<feComposite in2="hardAlpha" operator="out"/>
<feColorMatrix type="matrix" values="0 0 0 0 0.0627451 0 0 0 0 0.0941176 0 0 0 0 0.156863 0 0 0 0.03 0"/>
<feBlend mode="normal" in2="BackgroundImageFix" result="effect1_dropShadow_22710_102922"/>
<feColorMatrix in="SourceAlpha" type="matrix" values="0 0 0 0 0 0 0 0 0 0 0 0 0 0 0 0 0 0 127 0" result="hardAlpha"/>
<feMorphology radius="4" operator="erode" in="SourceAlpha" result="effect2_dropShadow_22710_102922"/>
<feOffset dy="20"/>
<feGaussianBlur stdDeviation="12"/>
<feComposite in2="hardAlpha" operator="out"/>
<feColorMatrix type="matrix" values="0 0 0 0 0.0627451 0 0 0 0 0.0941176 0 0 0 0 0.156863 0 0 0 0.08 0"/>
<feBlend mode="normal" in2="effect1_dropShadow_22710_102922" result="effect2_dropShadow_22710_102922"/>
<feBlend mode="normal" in="SourceGraphic" in2="effect2_dropShadow_22710_102922" result="shape"/>
</filter>
<filter id="filter1_dd_22710_102922" x="181.281" y="642" width="105" height="91" filterUnits="userSpaceOnUse" color-interpolation-filters="sRGB">
<feFlood flood-opacity="0" result="BackgroundImageFix"/>
<feColorMatrix in="SourceAlpha" type="matrix" values="0 0 0 0 0 0 0 0 0 0 0 0 0 0 0 0 0 0 127 0" result="hardAlpha"/>
<feMorphology radius="4" operator="erode" in="SourceAlpha" result="effect1_dropShadow_22710_102922"/>
<feOffset dy="8"/>
<feGaussianBlur stdDeviation="4"/>
<feComposite in2="hardAlpha" operator="out"/>
<feColorMatrix type="matrix" values="0 0 0 0 0.0627451 0 0 0 0 0.0941176 0 0 0 0 0.156863 0 0 0 0.03 0"/>
<feBlend mode="normal" in2="BackgroundImageFix" result="effect1_dropShadow_22710_102922"/>
<feColorMatrix in="SourceAlpha" type="matrix" values="0 0 0 0 0 0 0 0 0 0 0 0 0 0 0 0 0 0 127 0" result="hardAlpha"/>
<feMorphology radius="4" operator="erode" in="SourceAlpha" result="effect2_dropShadow_22710_102922"/>
<feOffset dy="20"/>
<feGaussianBlur stdDeviation="12"/>
<feComposite in2="hardAlpha" operator="out"/>
<feColorMatrix type="matrix" values="0 0 0 0 0.0627451 0 0 0 0 0.0941176 0 0 0 0 0.156863 0 0 0 0.08 0"/>
<feBlend mode="normal" in2="effect1_dropShadow_22710_102922" result="effect2_dropShadow_22710_102922"/>
<feBlend mode="normal" in="SourceGraphic" in2="effect2_dropShadow_22710_102922" result="shape"/>
</filter>
<filter id="filter2_dd_22710_102922" x="264.781" y="1284.87" width="105" height="91" filterUnits="userSpaceOnUse" color-interpolation-filters="sRGB">
<feFlood flood-opacity="0" result="BackgroundImageFix"/>
<feColorMatrix in="SourceAlpha" type="matrix" values="0 0 0 0 0 0 0 0 0 0 0 0 0 0 0 0 0 0 127 0" result="hardAlpha"/>
<feMorphology radius="4" operator="erode" in="SourceAlpha" result="effect1_dropShadow_22710_102922"/>
<feOffset dy="8"/>
<feGaussianBlur stdDeviation="4"/>
<feComposite in2="hardAlpha" operator="out"/>
<feColorMatrix type="matrix" values="0 0 0 0 0.0627451 0 0 0 0 0.0941176 0 0 0 0 0.156863 0 0 0 0.03 0"/>
<feBlend mode="normal" in2="BackgroundImageFix" result="effect1_dropShadow_22710_102922"/>
<feColorMatrix in="SourceAlpha" type="matrix" values="0 0 0 0 0 0 0 0 0 0 0 0 0 0 0 0 0 0 127 0" result="hardAlpha"/>
<feMorphology radius="4" operator="erode" in="SourceAlpha" result="effect2_dropShadow_22710_102922"/>
<feOffset dy="20"/>
<feGaussianBlur stdDeviation="12"/>
<feComposite in2="hardAlpha" operator="out"/>
<feColorMatrix type="matrix" values="0 0 0 0 0.0627451 0 0 0 0 0.0941176 0 0 0 0 0.156863 0 0 0 0.08 0"/>
<feBlend mode="normal" in2="effect1_dropShadow_22710_102922" result="effect2_dropShadow_22710_102922"/>
<feBlend mode="normal" in="SourceGraphic" in2="effect2_dropShadow_22710_102922" result="shape"/>
</filter>
<filter id="filter3_dd_22710_102922" x="123.781" y="1926.87" width="108" height="91" filterUnits="userSpaceOnUse" color-interpolation-filters="sRGB">
<feFlood flood-opacity="0" result="BackgroundImageFix"/>
<feColorMatrix in="SourceAlpha" type="matrix" values="0 0 0 0 0 0 0 0 0 0 0 0 0 0 0 0 0 0 127 0" result="hardAlpha"/>
<feMorphology radius="4" operator="erode" in="SourceAlpha" result="effect1_dropShadow_22710_102922"/>
<feOffset dy="8"/>
<feGaussianBlur stdDeviation="4"/>
<feComposite in2="hardAlpha" operator="out"/>
<feColorMatrix type="matrix" values="0 0 0 0 0.0627451 0 0 0 0 0.0941176 0 0 0 0 0.156863 0 0 0 0.03 0"/>
<feBlend mode="normal" in2="BackgroundImageFix" result="effect1_dropShadow_22710_102922"/>
<feColorMatrix in="SourceAlpha" type="matrix" values="0 0 0 0 0 0 0 0 0 0 0 0 0 0 0 0 0 0 127 0" result="hardAlpha"/>
<feMorphology radius="4" operator="erode" in="SourceAlpha" result="effect2_dropShadow_22710_102922"/>
<feOffset dy="20"/>
<feGaussianBlur stdDeviation="12"/>
<feComposite in2="hardAlpha" operator="out"/>
<feColorMatrix type="matrix" values="0 0 0 0 0.0627451 0 0 0 0 0.0941176 0 0 0 0 0.156863 0 0 0 0.08 0"/>
<feBlend mode="normal" in2="effect1_dropShadow_22710_102922" result="effect2_dropShadow_22710_102922"/>
<feBlend mode="normal" in="SourceGraphic" in2="effect2_dropShadow_22710_102922" result="shape"/>
</filter>
<filter id="filter4_dd_22710_102922" x="52.2812" y="2568.87" width="101" height="91" filterUnits="userSpaceOnUse" color-interpolation-filters="sRGB">
<feFlood flood-opacity="0" result="BackgroundImageFix"/>
<feColorMatrix in="SourceAlpha" type="matrix" values="0 0 0 0 0 0 0 0 0 0 0 0 0 0 0 0 0 0 127 0" result="hardAlpha"/>
<feMorphology radius="4" operator="erode" in="SourceAlpha" result="effect1_dropShadow_22710_102922"/>
<feOffset dy="8"/>
<feGaussianBlur stdDeviation="4"/>
<feComposite in2="hardAlpha" operator="out"/>
<feColorMatrix type="matrix" values="0 0 0 0 0.0627451 0 0 0 0 0.0941176 0 0 0 0 0.156863 0 0 0 0.03 0"/>
<feBlend mode="normal" in2="BackgroundImageFix" result="effect1_dropShadow_22710_102922"/>
<feColorMatrix in="SourceAlpha" type="matrix" values="0 0 0 0 0 0 0 0 0 0 0 0 0 0 0 0 0 0 127 0" result="hardAlpha"/>
<feMorphology radius="4" operator="erode" in="SourceAlpha" result="effect2_dropShadow_22710_102922"/>
<feOffset dy="20"/>
<feGaussianBlur stdDeviation="12"/>
<feComposite in2="hardAlpha" operator="out"/>
<feColorMatrix type="matrix" values="0 0 0 0 0.0627451 0 0 0 0 0.0941176 0 0 0 0 0.156863 0 0 0 0.08 0"/>
<feBlend mode="normal" in2="effect1_dropShadow_22710_102922" result="effect2_dropShadow_22710_102922"/>
<feBlend mode="normal" in="SourceGraphic" in2="effect2_dropShadow_22710_102922" result="shape"/>
</filter>
<filter id="filter5_dd_22710_102922" x="152.281" y="3210.87" width="101" height="91" filterUnits="userSpaceOnUse" color-interpolation-filters="sRGB">
<feFlood flood-opacity="0" result="BackgroundImageFix"/>
<feColorMatrix in="SourceAlpha" type="matrix" values="0 0 0 0 0 0 0 0 0 0 0 0 0 0 0 0 0 0 127 0" result="hardAlpha"/>
<feMorphology radius="4" operator="erode" in="SourceAlpha" result="effect1_dropShadow_22710_102922"/>
<feOffset dy="8"/>
<feGaussianBlur stdDeviation="4"/>
<feComposite in2="hardAlpha" operator="out"/>
<feColorMatrix type="matrix" values="0 0 0 0 0.0627451 0 0 0 0 0.0941176 0 0 0 0 0.156863 0 0 0 0.03 0"/>
<feBlend mode="normal" in2="BackgroundImageFix" result="effect1_dropShadow_22710_102922"/>
<feColorMatrix in="SourceAlpha" type="matrix" values="0 0 0 0 0 0 0 0 0 0 0 0 0 0 0 0 0 0 127 0" result="hardAlpha"/>
<feMorphology radius="4" operator="erode" in="SourceAlpha" result="effect2_dropShadow_22710_102922"/>
<feOffset dy="20"/>
<feGaussianBlur stdDeviation="12"/>
<feComposite in2="hardAlpha" operator="out"/>
<feColorMatrix type="matrix" values="0 0 0 0 0.0627451 0 0 0 0 0.0941176 0 0 0 0 0.156863 0 0 0 0.08 0"/>
<feBlend mode="normal" in2="effect1_dropShadow_22710_102922" result="effect2_dropShadow_22710_102922"/>
<feBlend mode="normal" in="SourceGraphic" in2="effect2_dropShadow_22710_102922" result="shape"/>
</filter>
</defs>
</svg>
